<svg version="1.1" id="Layer_1" xmlns="http://www.w3.org/2000/svg" xmlns:xlink="http://www.w3.org/1999/xlink" x="0px" y="0px"
	 viewBox="0 0 512 512" style="enable-background:new 0 0 512 512;" xml:space="preserve">
	<g id="contract">
		
			<radialGradient id="SVGID_1_" cx="158" cy="258" r="256" gradientTransform="matrix(-1 0 0 -1 414 514)" gradientUnits="userSpaceOnUse">
			<stop  offset="0.0051" style="stop-color:#E87E04"/>
			<stop  offset="1" style="stop-color:#D55400"/>
		</radialGradient>
		<path style="fill:url(#SVGID_1_);" d="M0,256c0,141.385,114.615,256,256,256c15.112,0,29.918-1.31,44.311-3.821
			c21.589-3.768,16.423-26.468,35.792-35.283s63.272-3.745,79.696-16.884C474.439,409.101,512,336.937,512,256
			C512,114.615,397.385,0,256,0S0,114.615,0,256z"/>
		<path style="fill:#ECF0F1;" d="M381,401c0,5.5-4.5,10-10,10H121c-5.5,0-10-4.5-10-10V67c0-5.5,4.5-10,10-10h192
			c5.5,0,13.182,3.182,17.071,7.071l43.857,43.857C377.818,111.818,381,119.5,381,125V401z"/>
		<path style="fill:#BDC3C7;" d="M373.929,107.929l-43.857-43.857c-1.763-1.763-4.307-3.376-7.071-4.618V105c0,5.5,4.5,10,10,10
			h45.546C377.305,112.235,375.691,109.691,373.929,107.929z"/>
		<path style="fill:#E5BF88;" d="M411.775,351.184L391,308v-43c0,0,2.333-17-13-17s-12,15-12,15l-0.306,56c0,0-41.025,28-14.806,92
			H290l33.669,35h81L411.775,351.184z"/>
		<rect x="313" y="439" style="fill:#ECF0F1;" width="99" height="17"/>
		<path style="fill:#33495F;" d="M304,507.487V456h111.788C383.88,481.525,345.735,499.569,304,507.487z"/>
		<path style="fill:#2B3E51;" d="M363,488.617c-18.574,8.558-38.348,14.952-59,18.87V456h59V488.617z"/>
		<polygon style="fill:#BFA072;" points="350.888,411 313,434.909 290,411 		"/>
		<circle style="fill:#ECF0F1;" cx="378.5" cy="262" r="9"/>
		<g>
			<path style="fill:#BDC3C7;" d="M132,149h228c1.381,0,2.5-1.119,2.5-2.5s-1.119-2.5-2.5-2.5H132c-1.381,0-2.5,1.119-2.5,2.5
				S130.619,149,132,149z"/>
		</g>
		<g>
			<path style="fill:#BDC3C7;" d="M132,161h228c1.381,0,2.5-1.119,2.5-2.5s-1.119-2.5-2.5-2.5H132c-1.381,0-2.5,1.119-2.5,2.5
				S130.619,161,132,161z"/>
		</g>
		<g>
			<path style="fill:#BDC3C7;" d="M131.5,172h194c1.381,0,2.5-1.119,2.5-2.5s-1.119-2.5-2.5-2.5h-194c-1.381,0-2.5,1.119-2.5,2.5
				S130.119,172,131.5,172z"/>
		</g>
		<g>
			<path style="fill:#BDC3C7;" d="M131.5,200h211c1.381,0,2.5-1.119,2.5-2.5s-1.119-2.5-2.5-2.5h-211c-1.381,0-2.5,1.119-2.5,2.5
				S130.119,200,131.5,200z"/>
		</g>
		<g>
			<path style="fill:#BDC3C7;" d="M131.5,228h205c1.381,0,2.5-1.119,2.5-2.5s-1.119-2.5-2.5-2.5h-205c-1.381,0-2.5,1.119-2.5,2.5
				S130.119,228,131.5,228z"/>
		</g>
		<g>
			<path style="fill:#BDC3C7;" d="M131.5,257h168c1.381,0,2.5-1.119,2.5-2.5s-1.119-2.5-2.5-2.5h-168c-1.381,0-2.5,1.119-2.5,2.5
				S130.119,257,131.5,257z"/>
		</g>
		<g>
			<path style="fill:#BDC3C7;" d="M131.5,270h168c1.381,0,2.5-1.119,2.5-2.5s-1.119-2.5-2.5-2.5h-168c-1.381,0-2.5,1.119-2.5,2.5
				S130.119,270,131.5,270z"/>
		</g>
		<g>
			<path style="fill:#BDC3C7;" d="M131.5,281h180c1.381,0,2.5-1.119,2.5-2.5s-1.119-2.5-2.5-2.5h-180c-1.381,0-2.5,1.119-2.5,2.5
				S130.119,281,131.5,281z"/>
		</g>
		<g>
			<path style="fill:#BDC3C7;" d="M131.5,305h180c1.381,0,2.5-1.119,2.5-2.5s-1.119-2.5-2.5-2.5h-180c-1.381,0-2.5,1.119-2.5,2.5
				S130.119,305,131.5,305z"/>
		</g>
		<rect x="129" y="96" style="fill:#227FBB;" width="160" height="19"/>
		<g>
			<path style="fill:#BDC3C7;" d="M131.5,215h211c1.381,0,2.5-1.119,2.5-2.5s-1.119-2.5-2.5-2.5h-211c-1.381,0-2.5,1.119-2.5,2.5
				S130.119,215,131.5,215z"/>
		</g>
		<g>
			<path style="fill:#BDC3C7;" d="M131.5,215h211c1.381,0,2.5-1.119,2.5-2.5s-1.119-2.5-2.5-2.5h-211c-1.381,0-2.5,1.119-2.5,2.5
				S130.119,215,131.5,215z"/>
		</g>
		<g>
			<g>
				<circle style="fill:#E94B35;" cx="153.948" cy="359.904" r="14.565"/>
			</g>
			<g>
				<path style="fill:#E94B35;" d="M184.104,352.339c-0.411-1.626,1.712-4.139,1.034-5.73c-0.678-1.591-3.961-1.8-4.851-3.224
					c-0.912-1.459,0.33-4.5-0.778-5.77c-1.126-1.292-4.313-0.476-5.611-1.559c-1.311-1.096-1.076-4.375-2.532-5.244
					c-1.463-0.875-4.241,0.886-5.818,0.251c-1.578-0.634-2.363-3.829-4.023-4.21c-1.653-0.379-3.753,2.148-5.458,2.029
					c-1.687-0.115-3.42-2.912-5.127-2.759c-1.679,0.149-2.89,3.203-4.558,3.624c-1.626,0.409-4.139-1.711-5.73-1.033
					s-1.801,3.96-3.222,4.85c-1.46,0.912-4.501-0.328-5.771,0.779c-1.293,1.125-0.475,4.312-1.559,5.609
					c-1.096,1.312-4.375,1.076-5.244,2.532c-0.875,1.462,0.886,4.24,0.251,5.817c-0.635,1.578-3.828,2.363-4.21,4.023
					c-0.381,1.652,2.148,3.753,2.03,5.458c-0.117,1.687-2.913,3.421-2.761,5.128c0.15,1.678,3.205,2.887,3.625,4.556
					c0.411,1.628-1.712,4.14-1.034,5.731c0.678,1.592,3.961,1.801,4.85,3.222c0.913,1.46-0.329,4.503,0.777,5.771
					c1.128,1.294,4.313,0.477,5.612,1.561c1.312,1.095,1.076,4.374,2.532,5.244c1.463,0.874,4.241-0.887,5.818-0.252
					c1.578,0.635,2.363,3.827,4.024,4.21c1.652,0.382,3.753-2.147,5.458-2.028c1.687,0.115,3.42,2.912,5.127,2.76
					c1.678-0.15,2.889-3.204,4.558-3.625c1.626-0.409,4.139,1.712,5.73,1.033c1.591-0.678,1.8-3.961,3.223-4.85
					c1.459-0.914,4.5,0.328,5.771-0.779c1.292-1.126,0.474-4.312,1.558-5.609c1.097-1.312,4.374-1.076,5.245-2.533
					c0.874-1.463-0.886-4.24-0.252-5.817c0.635-1.577,3.829-2.362,4.211-4.023c0.38-1.652-2.148-3.755-2.03-5.458
					c0.117-1.688,2.913-3.42,2.761-5.127C187.58,355.219,184.525,354.008,184.104,352.339z M164.785,385.328
					c-14.041,5.984-30.275-0.545-36.261-14.586c-5.985-14.041,0.545-30.275,14.586-36.262c14.042-5.985,30.275,0.545,36.261,14.586
					C185.357,363.107,178.827,379.342,164.785,385.328z"/>
			</g>
			<g>
				<path style="fill:#E94B35;" d="M162.178,379.508c-5.76,2.456-12.093,2.343-17.377-0.313
					c-8.688-4.367-13.556-13.73-11.839-22.771c1.362-7.174,6.249-13.352,12.752-16.123c1.868-0.797,3.834-1.299,5.843-1.492
					c9.245-0.891,18.043,4.176,21.894,12.605l0.026,0.051c0.025,0.049,0.047,0.098,0.07,0.15c3.142,7.682,1.689,16.704-3.618,22.443
					C167.785,376.377,165.104,378.262,162.178,379.508L162.178,379.508z M146.508,342.525c-4.474,1.907-8.024,5.832-9.904,10.379
					c-1.945,4.702-1.886,9.84,0.12,14.359c4.184,9.429,15.105,13.93,24.331,9.996l0.249-0.09
					c9.447-4.192,13.735-15.082,9.823-24.649c-4.194-9.451-15.15-14.032-24.375-10.099L146.508,342.525z"/>
			</g>
			<g>
				<path style="fill:#E94B35;" d="M166.026,381.625l-0.208-0.376c1.492-0.827,2.899-1.814,4.181-2.931l0.283,0.324
					C168.977,379.779,167.545,380.783,166.026,381.625z M161.247,383.662c-1.661,0.512-3.376,0.85-5.099,1.004l-0.038-0.43
					c1.693-0.15,3.379-0.482,5.01-0.985L161.247,383.662z M173.819,374.836l-0.344-0.259c1.021-1.36,1.903-2.836,2.62-4.382
					l0.39,0.18C175.755,371.949,174.858,373.449,173.819,374.836z M150.95,384.578c-1.72-0.211-3.424-0.604-5.064-1.167l0.14-0.407
					c1.611,0.555,3.286,0.94,4.977,1.147L150.95,384.578z M178.173,365.46l-0.42-0.097c0.383-1.664,0.591-3.369,0.619-5.07
					l0.431,0.008C178.773,362.031,178.562,363.767,178.173,365.46z M141.173,381.222c-1.491-0.892-2.889-1.94-4.156-3.118
					l0.293-0.314c1.246,1.156,2.619,2.188,4.083,3.063L141.173,381.222z M178.359,355.168l-0.413,0.104
					c-0.328-1.663-0.711-3.017-1.496-4.856l0.396-0.17C177.631,352.086,178.025,353.475,178.359,355.168z M133.604,374.186
					c-0.988-1.411-1.835-2.938-2.517-4.536l0.393-0.177c0.673,1.579,1.505,3.079,2.476,4.465L133.604,374.186z M173.944,345.876
					c-0.977-1.396-2.104-2.691-3.353-3.852l0.293-0.315c1.27,1.182,2.417,2.5,3.411,3.92L173.944,345.876z M129.977,364.594
					l-0.422,0.082c-0.335-1.701-0.49-3.441-0.46-5.177l0.43,0.007C129.495,361.211,129.647,362.922,129.977,364.594z
					 M166.51,338.959c-1.462-0.876-3.021-1.601-4.632-2.154l0.14-0.406c1.64,0.563,3.225,1.301,4.712,2.19L166.51,338.959z
					 M130.145,354.436l-0.419-0.096c0.39-1.689,0.958-3.344,1.688-4.916l0.39,0.183C131.085,351.15,130.527,352.775,130.145,354.436
					z M156.901,335.658c-1.693-0.209-3.412-0.238-5.106-0.088l-0.039-0.428c1.725-0.152,3.474-0.123,5.198,0.088L156.901,335.658z
					 M134.426,345.225l-0.344-0.258c1.042-1.389,2.232-2.67,3.538-3.806l0.282,0.323C136.62,342.602,135.45,343.859,134.426,345.225
					z M146.783,336.555c-1.613,0.497-3.216,1.18-4.698,2l-0.208-0.375c1.509-0.838,3.138-1.531,4.781-2.035L146.783,336.555z"/>
			</g>
		</g>
		<g>
			<path style="fill:#227FBB;" d="M267.236,405.984l0.631-1.051c4.417-7.362,16.994-12.384,27.779-15.827
				c4.039-3.53,7.452-7.626,9.896-12.517c1.914-3.827,1.932-7.301,1.21-8.338c-0.192-0.275-0.368-0.295-0.483-0.275
				c-0.595,0.065-1.653,1.172-2.842,4.078l-0.434,1.061l-0.315-1.102c-0.272-0.953-0.502-1.919-0.724-2.852
				c-0.407-1.711-0.827-3.475-1.522-5.205c-1.965,1.203-2.841,3.621-3.765,6.172c-0.691,1.907-1.406,3.879-2.63,5.279l-0.437,0.499
				l-0.233-0.621c-0.528-1.407-0.688-2.973-0.842-4.486c-0.195-1.908-0.396-3.878-1.33-5.595c-1.652,1.456-2.481,4.323-2.739,7.029
				c0.04,1.148,0.024,2.227,0.013,3.024c-0.004,0.277-0.007,0.514-0.007,0.699L287.671,376c-0.117-1.05-0.137-2.379-0.01-3.777
				c-0.079-2.229-0.366-4.735-1.287-5.67c-0.22-0.225-0.463-0.332-0.741-0.332c-0.507,0-0.925,0.18-1.277,0.55
				c-1.013,1.067-1.295,3.466-1.33,5.792c0.167,1.906,0.167,4.436,0.167,5.436H282.4c0-1-0.027-0.889-0.06-1.514
				c-0.058-1.117-0.129-2.511-0.109-3.923c-0.316-3.542-1.223-7.062-3.821-8.667c-2.378,2.646-2.185,7.354-2.014,11.524
				c0.09,2.177,0.174,4.231-0.099,5.87l-0.339,2.038l-0.439-2.019c-0.63-2.898-1.071-5.833-1.497-8.672
				c-0.852-5.671-1.662-11.07-3.859-16.389c0.954,7.133,2.331,18.45-2.071,23.219c-2.047,2.561-5.332,2.771-7.374,1.66
				c-1.793-0.976-2.484-2.85-1.804-4.891l0.752,0.251c-0.567,1.702-0.046,3.14,1.431,3.943c1.785,0.972,4.665,0.684,6.394-1.48
				c4.296-4.655,2.736-16.271,1.804-23.212c-0.099-0.73-0.189-1.409-0.266-2.023l-0.287-2.296l1.035,2.069
				c3.106,6.212,4.084,12.729,5.03,19.031c0.272,1.814,0.551,3.67,0.88,5.525c-0.01-0.828-0.046-1.7-0.083-2.594
				c-0.183-4.451-0.39-9.495,2.454-12.339l0.209-0.21l0.26,0.143c2.215,1.208,3.378,3.523,3.989,6.152
				c0.229-1.229,0.619-2.293,1.265-2.973c0.502-0.529,1.125-0.797,1.852-0.797c0.495,0,0.934,0.191,1.306,0.568
				c0.642,0.651,1.021,1.835,1.243,3.182c0.528-2.012,1.442-3.855,2.895-4.893l0.343-0.244l0.224,0.357
				c1.225,1.961,1.452,4.176,1.67,6.319c0.129,1.268,0.253,2.476,0.571,3.6c0.867-1.229,1.438-2.806,2.037-4.461
				c0.991-2.734,2.015-5.562,4.529-6.818l0.376-0.188l0.166,0.387c0.824,1.923,1.286,3.863,1.732,5.739
				c0.136,0.569,0.274,1.151,0.423,1.732c1.027-2.203,2.066-3.415,3.034-3.521c0.48-0.055,0.91,0.165,1.221,0.611
				c0.979,1.405,0.816,5.21-1.151,9.146c-2.226,4.451-5.293,8.278-8.897,11.623c2.487-0.771,4.845-1.457,6.945-2.068
				c0.957-0.278,1.861-0.542,2.7-0.79c10.382-3.323,21.328-6.131,31.649-8.116l1.267-0.244l-0.912,0.914
				c-0.269,0.269-0.639,0.393-0.965,0.502c-0.267,0.089-0.519,0.173-0.655,0.31l-0.355-0.355
				c-9.766,1.954-20.027,4.621-29.794,7.748c-0.849,0.251-1.754,0.515-2.712,0.794c-2.56,0.744-5.505,1.602-8.599,2.588
				c-7.922,6.831-18.077,11.588-27.559,15.652L267.236,405.984z M294.027,390.466c-9.641,3.188-20.204,7.624-24.746,13.778
				C278.086,400.436,286.896,396.221,294.027,390.466z"/>
		</g>
	</g>
</svg>
