<svg version="1.1" id="Capa_1" xmlns="http://www.w3.org/2000/svg" xmlns:xlink="http://www.w3.org/1999/xlink" x="0px" y="0px"
	 viewBox="0 0 512.002 512.002" style="enable-background:new 0 0 512.002 512.002;" xml:space="preserve">
<path style="fill:#F2F2F2;" d="M511.435,259.785L466.88,26.015c-3.328-17.355-20.085-28.747-37.44-25.44L53.333,72.265
	c-17.355,3.296-28.736,20.064-25.44,37.419l44.555,233.771c3.317,17.376,20.075,28.768,37.429,25.461l376.117-71.691
	C503.339,293.919,514.731,277.161,511.435,259.785"/>
<rect x="227.41" y="-98.784" transform="matrix(0.1873 0.9823 -0.9823 0.1873 332.3009 -152.338)" style="fill:#ACB3BA;" width="61.611" height="446.879"/>
<path style="fill:#40596B;" d="M422.219,205.065H32c-17.675,0-32,14.336-32,32v242.933c0,17.685,14.325,32,32,32h390.219
	c17.675,0,32-14.315,32-32V237.065C454.219,219.391,439.893,205.065,422.219,205.065"/>
<path style="fill:#FFD15C;" d="M148.064,390.932H45.877c-2.944,0-5.333-2.4-5.333-5.333v-68.565c0-2.933,2.389-5.333,5.333-5.333
	h102.187c2.933,0,5.333,2.4,5.333,5.333v68.565C153.397,388.543,151.008,390.932,148.064,390.932"/>
<g>
	<rect x="40.533" y="334.292" style="fill:#F8B64C;" width="112.853" height="5.749"/>
	<rect x="40.533" y="362.601" style="fill:#F8B64C;" width="112.853" height="5.749"/>
	<rect x="113.899" y="311.679" style="fill:#F8B64C;" width="5.621" height="26.272"/>
	<rect x="113.899" y="366.505" style="fill:#F8B64C;" width="5.621" height="24.459"/>
	<rect x="96.96" y="337.161" style="fill:#F8B64C;" width="5.621" height="27.392"/>
	<rect x="130.411" y="337.161" style="fill:#F8B64C;" width="5.632" height="27.392"/>
	<rect x="68.555" y="311.679" style="fill:#F8B64C;" width="5.632" height="79.232"/>
</g>
<g>
	<path style="fill:#FFFFFF;" d="M56.523,283.732H40.544v-37.291h14.208c2.464,0,4.608,0.309,6.4,0.917
		c1.792,0.608,3.147,1.419,4.053,2.453c1.632,1.92,2.443,4.085,2.443,6.496c0,2.912-0.917,5.088-2.773,6.496
		c-0.619,0.501-1.056,0.811-1.291,0.939c-0.245,0.128-0.683,0.331-1.312,0.629c2.272,0.501,4.064,1.525,5.397,3.104
		c1.355,1.579,2.016,3.563,2.016,5.899c0,2.603-0.853,4.896-2.603,6.88C65.067,282.58,61.547,283.732,56.523,283.732
		 M48.693,261.545h3.851c2.272,0,3.957-0.245,5.056-0.747c1.099-0.501,1.632-1.557,1.632-3.232c0-1.643-0.501-2.752-1.504-3.275
		c-1.013-0.544-2.72-0.811-5.12-0.811h-3.915V261.545z M48.693,276.681h5.579c2.347,0,4.096-0.288,5.248-0.896
		c1.173-0.587,1.749-1.728,1.749-3.435c0-1.728-0.608-2.88-1.845-3.435c-1.237-0.544-3.221-0.811-5.941-0.811h-4.8v8.576H48.693z"/>
	<path style="fill:#FFFFFF;" d="M102.155,283.732l-3.403-8.064H83.445l-3.403,8.064h-8.672l15.776-37.291h7.893l15.776,37.291
		H102.155z M91.115,257.545l-4.587,10.837h9.131L91.115,257.545z"/>
	<polygon style="fill:#FFFFFF;" points="140.608,246.441 148.757,246.441 148.757,283.732 140.608,283.732 123.2,260.372 
		123.2,283.732 115.061,283.732 115.061,246.441 122.677,246.441 140.608,270.441 	"/>
	<path style="fill:#FFFFFF;" d="M157.739,246.441h8.16v15.317l13.792-15.317h10.091l-14.528,16.48
		c1.237,1.771,3.573,5.109,6.944,9.963c3.371,4.853,5.909,8.48,7.584,10.859h-9.525l-10.709-14.731l-3.659,4.171v10.56h-8.16
		v-37.301H157.739z"/>
</g>
<g>
	<polygon style="fill:#334A5E;" points="454.219,399.145 292.395,451.689 294.955,459.913 454.219,408.212 	"/>
	<path style="fill:#334A5E;" d="M439.115,507.081l-64-205.355l-8.053,2.624l64.245,206.165
		C434.101,509.705,436.725,508.585,439.115,507.081"/>
	<path style="fill:#334A5E;" d="M297.707,454.495c-9.312-29.856-6.677-61.621,7.424-89.44c14.101-27.851,37.995-48.395,67.253-57.92
		c19.445-6.315,39.733-7.253,59.168-2.912c7.755,1.728,15.296,4.523,22.667,7.915v-9.579c-26.827-11.339-56.395-12.725-84.405-3.627
		c-31.403,10.208-57.035,32.245-72.181,62.144c-15.136,29.877-17.984,64-7.979,96.043c6.688,21.44,18.667,40.149,34.56,54.88h13.131
		C318.773,497.545,304.928,477.705,297.707,454.495"/>
	<path style="fill:#334A5E;" d="M454.219,464.329c-10.059,1.813-20.288,4.288-30.496,7.605
		c-28.619,9.291-54.229,23.605-72.245,40.064h13.163c16.437-12.939,37.952-24.149,61.643-31.851
		c9.355-3.019,18.731-5.355,27.936-7.083V464.329z"/>
	<path style="fill:#334A5E;" d="M454.219,322.143c-16.992,14.645-40.213,27.349-66.037,35.755
		c-31.808,10.336-64.224,13.12-88.917,7.648l-1.792,8.416c26.08,5.792,60.085,2.933,93.269-7.829
		c24.181-7.851,46.272-19.413,63.477-32.875V322.143z"/>
	<path style="fill:#334A5E;" d="M395.264,511.039c-17.184-17.899-31.861-44.48-41.312-74.816
		c-9.451-30.315-12.512-60.651-8.619-85.397c3.733-23.733,13.333-39.232,27.029-43.691c4.811-1.557,9.995-1.707,15.381-0.523
		c9.984,2.229,20.725,9.088,31.413,20.224c13.771,14.357,25.899,34.336,35.04,57.291v-20.811
		c-8.288-16.651-18.144-31.211-29.013-42.517c-18.816-19.605-38.485-27.349-55.381-21.877s-28.565,23.435-32.811,50.517
		c-4.107,26.059-0.96,57.813,8.896,89.397c9.013,28.917,22.699,54.539,38.827,73.141h11.541
		C395.947,511.668,395.584,511.391,395.264,511.039"/>
	<rect x="198.197" y="453.961" style="fill:#334A5E;" width="36.619" height="16.171"/>
	<rect x="119.072" y="453.961" style="fill:#334A5E;" width="36.619" height="16.171"/>
	<rect x="39.968" y="453.961" style="fill:#334A5E;" width="36.608" height="16.171"/>
</g>
</svg>
