<svg xmlns="http://www.w3.org/2000/svg" xmlns:xlink="http://www.w3.org/1999/xlink" version="1.1" id="Capa_1" x="0px" y="0px" viewBox="0 0 471.817 471.817" style="enable-background:new 0 0 471.817 471.817;" xml:space="preserve">
	<g>
		<path d="M434.717,123.98c0-22.231-18.021-40.251-40.251-40.251H40.251C18.021,83.729,0,101.75,0,123.98v35.247h434.717V123.98    L434.717,123.98z"/>
		<path d="M402.391,253.235c-0.978-0.978-2.56-0.978-3.535,0l-38.537,38.535l-15.392-15.39c-0.938-0.938-2.598-0.938-3.534,0    l-14.144,14.144c-0.469,0.469-0.731,1.104-0.731,1.768s0.264,1.299,0.731,1.768l31.301,31.299    c0.488,0.488,1.127,0.732,1.769,0.732c0.639,0,1.279-0.244,1.768-0.732l54.447-54.445c0.469-0.469,0.732-1.104,0.732-1.769    c0-0.663-0.265-1.299-0.732-1.769L402.391,253.235z"/>
		<path d="M372.023,188.502c-18.222,0-35.312,4.912-50.029,13.475H0v122.11c0,22.229,18.021,40.251,40.251,40.251h267.227    c17.414,14.805,39.954,23.75,64.547,23.75c55.025,0,99.793-44.766,99.793-99.793C471.816,233.269,427.05,188.502,372.023,188.502z     M148.392,309.309c0,2.852-2.313,5.164-5.164,5.164H63.604c-2.852,0-5.165-2.312-5.165-5.164v-15.71    c0-2.853,2.313-5.165,5.165-5.165h79.624c2.852,0,5.164,2.312,5.164,5.165V309.309L148.392,309.309z M372.023,351.547    c-34.935,0-63.251-28.318-63.251-63.251s28.316-63.25,63.251-63.25c34.933,0,63.25,28.318,63.25,63.25    S406.956,351.547,372.023,351.547z"/>
	</g>
</svg>