<svg version="1.1" id="Layer_1" xmlns="http://www.w3.org/2000/svg" xmlns:xlink="http://www.w3.org/1999/xlink" x="0px" y="0px"
	 viewBox="0 0 496.159 496.159" style="enable-background:new 0 0 496.159 496.159;" xml:space="preserve">
<path style="fill:#334D5C;" d="M248.083,0.003C111.071,0.003,0,111.063,0,248.085c0,137.001,111.07,248.07,248.083,248.07
	c137.006,0,248.076-111.069,248.076-248.07C496.159,111.062,385.089,0.003,248.083,0.003z"/>
<g>
	<polygon style="fill:#43C628;" points="166.021,84.4 155.184,90.325 178.43,143.774 198.47,132.818 	"/>
	<circle style="fill:#43C628;" cx="161.06" cy="88.199" r="17.13"/>
</g>
<path style="fill:#7CE063;" d="M164.538,73.847c-7.817-2.291-16.012,2.189-18.303,10.007s2.19,16.013,10.007,18.303
	C164.06,104.448,172.356,76.137,164.538,73.847z"/>
<g>
	<polygon style="fill:#43C628;" points="330.538,84.4 298.089,132.818 318.129,143.774 341.374,90.325 	"/>
	<circle style="fill:#43C628;" cx="335.5" cy="88.199" r="17.13"/>
</g>
<path style="fill:#7CE063;" d="M341.964,74.921c-7.147-3.908-16.11-1.282-20.018,5.866c-3.908,7.147-1.281,16.11,5.867,20.018
	C334.96,104.713,349.112,78.829,341.964,74.921z"/>
<path style="fill:#43C628;" d="M248.019,107.13c-53.579,0-97.011,43.433-97.011,97.011v109.393
	c0,53.578,43.433,38.066,97.011,38.066s97.011,15.512,97.011-38.066V204.141C345.031,150.562,301.598,107.13,248.019,107.13z"/>
<g>
	<path style="fill:#7CE063;" d="M156.981,209.776c29.817-78.667,86.28-95.796,86.28-95.796
		C162.691,118.421,156.981,209.776,156.981,209.776z"/>
	<path style="fill:#7CE063;" d="M315.584,146.334c19.032,26.011,25.377,143.377,25.377,143.377
		C349.208,145.7,315.584,146.334,315.584,146.334z"/>
</g>
<g>
	<path style="fill:#43C628;" d="M405.671,347.669c-3.309-1.008-26.328-1.269-37.43-5.71s-20.301-9.199-23.156-30.452
		c-1.611-12.013-56.146,40.919-56.146,40.919c54.242,1.903,98.194,24.808,108.589,27.973c11.992,3.651,24.225-1.638,27.323-11.813
		C427.949,358.412,417.663,351.32,405.671,347.669z"/>
	<path style="fill:#43C628;" d="M151.659,311.508c-2.855,21.253-12.054,26.011-23.156,30.452s-34.121,4.702-37.43,5.71
		c-11.992,3.651-22.277,10.742-19.18,20.917c3.098,10.175,15.331,15.464,27.323,11.813c10.395-3.165,54.347-26.069,108.589-27.973
		C207.805,352.427,153.27,299.495,151.659,311.508z"/>
	<path style="fill:#43C628;" d="M157.616,354.013c0,0,17.764-1.903,22.205,0.635c4.44,2.538,5.573,4.586,4.44,7.613
		c-2.603,6.956-12.402,8.211-18.081,13.957c-8.813,8.916-16.036,19.759-7.931,26.646c8.106,6.886,26.052,7.271,34.169-2.284
		c4.742-5.582,8.438-9.829,33.08-31.657c11.913-10.553,18.398-15.543,33.624-17.447
		C259.122,351.475,183.379,343.181,157.616,354.013z"/>
	<path style="fill:#43C628;" d="M330.454,376.218c-5.679-5.746-15.479-7.001-18.081-13.957c-1.132-3.027,0-5.075,4.441-7.613
		c4.441-2.538,22.205-0.635,22.205-0.635c-25.764-10.832-101.506-2.538-101.506-2.538c15.226,1.903,21.71,6.894,33.624,17.447
		c24.642,21.829,28.337,26.076,33.08,31.657c8.116,9.554,26.063,9.169,34.168,2.284C346.49,395.976,339.266,385.134,330.454,376.218
		z"/>
	<path style="fill:#43C628;" d="M218.895,318.13c9.42,12.112,7.703,20.313,8.664,36.2c1.989,32.859,3.122,38.666,4.758,45.678
		c3.331,14.274,5.101,25.544,15.702,26.408c10.602,0.862,11.843-12.598,13.798-24.98c1.427-9.04,9.041-77.081,9.041-77.081
		C260.3,298.477,218.895,318.13,218.895,318.13z"/>
</g>
<circle style="fill:#FFFFFF;" cx="198.14" cy="225.149" r="22.13"/>
<circle style="fill:#636363;" cx="198.14" cy="225.149" r="9.648"/>
<circle style="fill:#FFFFFF;" cx="246.99" cy="171.609" r="22.13"/>
<circle style="fill:#636363;" cx="246.99" cy="171.609" r="9.648"/>
<circle style="fill:#FFFFFF;" cx="295.83" cy="225.149" r="22.13"/>
<circle style="fill:#636363;" cx="295.83" cy="225.149" r="9.648"/>
<path style="fill:#238C10;" d="M316.536,276.886H186.164c-0.722,0-1.33,0.539-1.417,1.256c-0.087,0.716,0.375,1.385,1.077,1.557
	c0.26,0.064,26.415,6.385,64.769,6.385h0.007c22.516,0,44.793-2.143,66.213-6.371c0.721-0.142,1.215-0.808,1.144-1.54
	C317.885,277.444,317.27,276.886,316.536,276.886z"/>
</svg>
