<svg xmlns="http://www.w3.org/2000/svg" xmlns:xlink="http://www.w3.org/1999/xlink" version="1.1" id="Capa_1" x="0px" y="0px" viewBox="0 0 512 512" style="enable-background:new 0 0 512 512;" xml:space="preserve">

	<g>
		<polygon points="8.789,121 120,121 120,8.789   "/>
	</g>
	<g>
		<path d="M391,271c-66.167,0-120,53.833-120,120s53.833,121,120,121s121-54.833,121-121S457.167,271,391,271z M446.605,386.605    l-60,60c-5.859,5.859-15.352,5.859-21.211,0l-30-30c-5.859-5.859-5.859-15.352,0-21.211s15.352-5.859,21.211,0L376,414.789    l49.395-49.395c5.859-5.859,15.352-5.859,21.211,0S452.465,380.746,446.605,386.605z"/>
	</g>
	<g>
		<path d="M75,331h178.715c23.212-52.881,75.934-90,137.285-90V45c0-24.814-20.186-45-45-45H150v136c0,8.291-6.709,15-15,15H0v315    c0,24.814,20.186,46,45,46h256.928c-29.088-21.658-50.398-54.214-57.896-91H75c-8.291,0-15-6.709-15-15c0-8.291,6.709-15,15-15    h166c0-10.272,1.055-20.303,3.032-30H75c-8.291,0-15-6.709-15-15C60,337.709,66.709,331,75,331z M195,91h121    c8.291,0,15,6.709,15,15s-6.709,15-15,15H195c-8.291,0-15-6.709-15-15S186.709,91,195,91z M195,151h121c8.291,0,15,6.709,15,15    s-6.709,15-15,15H195c-8.291,0-15-6.709-15-15S186.709,151,195,151z M75,211h241c8.291,0,15,6.709,15,15s-6.709,15-15,15H75    c-8.291,0-15-6.709-15-15S66.709,211,75,211z M75,271h186.625c8.291,0,15,6.709,15,15c0,8.291-6.709,15-15,15H75    c-8.291,0-15-6.709-15-15C60,277.709,66.709,271,75,271z"/>
	</g>
</svg>