<svg version="1.1" id="Capa_1" xmlns="http://www.w3.org/2000/svg" xmlns:xlink="http://www.w3.org/1999/xlink" x="0px" y="0px"
	 viewBox="0 0 427.377 427.377" style="enable-background:new 0 0 427.377 427.377;" xml:space="preserve">
<path d="M422.377,113.726h-10.809c-2.461-18.935-18.679-33.611-38.272-33.611c-19.595,0-35.814,14.676-38.275,33.611h-10.805
	c-2.762,0-5,2.239-5,5v26.614c0,2.761,2.238,5,5,5h10.47v12.745H314.44v-25.501c0-2.761-2.238-5-5-5c-2.762,0-5,2.239-5,5v17.497
	c-5.081-4.859-12.343-10.815-21.917-16.38v-16.117c0-2.761-2.238-5-5-5s-5,2.239-5,5v10.901c-6.488-3.018-13.783-5.736-21.917-7.856
	v-13.045c0-2.761-2.238-5-5-5c-2.762,0-5,2.239-5,5v10.841c-6.795-1.237-14.098-2.042-21.917-2.287V96.162c0-2.761-2.238-5-5-5
	c-2.761,0-5,2.239-5,5v24.977c-7.819,0.244-15.122,1.05-21.917,2.287v-10.841c0-2.761-2.239-5-5-5c-2.761,0-5,2.239-5,5v13.045
	c-8.133,2.12-15.429,4.838-21.917,7.856v-10.901c0-2.761-2.239-5-5-5c-2.761,0-5,2.239-5,5v16.117
	c-9.574,5.564-16.836,11.52-21.917,16.38v-17.497c0-2.761-2.239-5-5-5c-2.761,0-5,2.239-5,5v25.501H92.691V150.34h10.47
	c2.761,0,5-2.239,5-5v-26.614c0-2.761-2.239-5-5-5H92.35c-2.46-18.935-18.675-33.611-38.269-33.611
	c-19.595,0-35.813,14.676-38.273,33.611H5c-2.761,0-5,2.239-5,5v26.614c0,2.761,2.239,5,5,5h10.47v191.921c0,2.761,2.239,5,5,5
	h67.222c2.761,0,5-2.239,5-5v-9.678h241.994v9.678c0,2.761,2.238,5,5,5h67.222c2.762,0,5-2.239,5-5V150.34h10.47
	c2.762,0,5-2.239,5-5v-26.614C427.377,115.965,425.139,113.726,422.377,113.726z M54.081,90.115
	c14.07,0,25.791,10.212,28.164,23.611H25.919C28.291,100.327,40.011,90.115,54.081,90.115z M82.691,194.637H67.94
	c-2.761,0-5,2.239-5,5c0,2.761,2.239,5,5,5h14.752v47.806H67.94c-2.761,0-5,2.239-5,5c0,2.761,2.239,5,5,5h14.752v47.806H67.94
	c-2.761,0-5,2.239-5,5c0,2.761,2.239,5,5,5h14.752v17.013H25.47v-45.916h14.752c2.761,0,5-2.239,5-5c0-2.761-2.239-5-5-5H25.47
	V233.54h14.752c2.761,0,5-2.239,5-5c0-2.761-2.239-5-5-5H25.47v-47.806h14.752c2.761,0,5-2.239,5-5s-2.239-5-5-5H25.47V150.34
	h57.222V194.637z M10,140.34v-16.614h88.161v16.614H10z M112.938,322.583H92.691v-12.292h20.246V322.583z M112.938,300.291H92.691
	v-106.19h20.246V300.291z M112.938,184.101H92.691v-11.016h20.246V184.101z M144.855,322.583h-21.917v-12.292h21.917V322.583z
	 M144.855,300.291h-21.917V190.804c2.405-2.979,9.585-11.129,21.917-19.193V300.291z M144.855,159.717
	c-9.574,5.564-16.836,11.52-21.917,16.38v-6.309c2.405-2.979,9.585-11.129,21.917-19.193V159.717z M218.689,131.144
	c7.862,0.27,15.167,1.165,21.917,2.522v10.775c-6.795-1.237-14.098-2.042-21.917-2.287V131.144z M240.606,154.682v60.402h-21.917
	V152.16C226.551,152.431,233.856,153.325,240.606,154.682z M240.606,238.801h-53.834v-13.717h53.834V238.801z M186.772,133.646
	c6.747-1.347,14.051-2.234,21.917-2.502v11.011c-7.819,0.244-15.122,1.05-21.917,2.287V133.646z M208.689,152.16v62.924h-21.917
	v-60.421C193.518,153.315,200.823,152.428,208.689,152.16z M154.855,144.762c6.343-3.284,13.639-6.314,21.917-8.688v10.57
	c-8.133,2.12-15.429,4.838-21.917,7.856V144.762z M176.772,322.583h-21.917v-12.292h21.917V322.583z M176.772,300.291h-21.917
	V165.778c6.343-3.284,13.639-6.314,21.917-8.688V300.291z M208.689,322.583h-21.917v-12.292h21.917V322.583z M186.772,300.291
	v-51.49h21.917v51.49H186.772z M240.606,322.583h-21.917v-12.292h21.917V322.583z M218.689,300.291v-51.49h21.917v51.49H218.689z
	 M272.523,322.583h-21.917v-12.292h21.917V322.583z M272.523,300.291h-21.917V157.124c8.273,2.384,15.569,5.425,21.917,8.718
	V300.291z M272.523,154.501c-6.488-3.018-13.783-5.736-21.917-7.856v-10.538c8.273,2.384,15.569,5.425,21.917,8.718V154.501z
	 M304.44,322.583h-21.917v-12.292h21.917V322.583z M304.44,300.291h-21.917V171.68c12.301,8.046,19.499,16.164,21.917,19.135
	V300.291z M304.44,176.097c-5.081-4.859-12.343-10.815-21.917-16.38v-9.053c12.3,8.044,19.498,16.163,21.917,19.135V176.097z
	 M334.686,322.583H314.44v-12.292h20.246V322.583z M334.686,300.291H314.44v-106.19h20.246V300.291z M334.686,184.101H314.44
	v-11.016h20.246V184.101z M373.296,90.115c14.069,0,25.789,10.212,28.16,23.611h-56.324
	C347.505,100.327,359.227,90.115,373.296,90.115z M401.907,165.734h-14.752c-2.762,0-5,2.239-5,5s2.238,5,5,5h14.752v47.806h-14.752
	c-2.762,0-5,2.239-5,5c0,2.761,2.238,5,5,5h14.752v47.806h-14.752c-2.762,0-5,2.239-5,5c0,2.761,2.238,5,5,5h14.752v45.916h-57.222
	v-17.013h14.753c2.762,0,5-2.239,5-5c0-2.761-2.238-5-5-5h-14.753v-47.806h14.753c2.762,0,5-2.239,5-5c0-2.761-2.238-5-5-5h-14.753
	v-47.806h14.753c2.762,0,5-2.239,5-5c0-2.761-2.238-5-5-5h-14.753V150.34h57.222V165.734z M417.377,140.34h-88.161v-16.614h88.161
	V140.34z"/>
</svg>
