<svg version="1.1" id="Layer_1" xmlns="http://www.w3.org/2000/svg" xmlns:xlink="http://www.w3.org/1999/xlink" x="0px" y="0px"
	 viewBox="0 0 477.665 477.665" style="enable-background:new 0 0 477.665 477.665;" xml:space="preserve">
<path style="fill:#EE964B;" d="M262.832,359.998l162.744-28.304c11.096-1.928,21.256,6.616,21.256,17.88l0,0
	c0,6.456-3.432,12.424-9,15.672L262.448,475.222c-4.728,2.968-10.664,3.248-15.656,0.752l-87.96-43.976h-32v-72H262.832z"/>
<path style="fill:#3F3F3F;" d="M126.832,303.998h88l65.376,65.376c4.24,4.24,6.624,10,6.624,16l0,0
	c0,12.496-10.128,22.624-22.624,22.624l0,0c-6,0-11.76-2.384-16-6.624l-41.376-41.376h-80V303.998"/>
<rect x="94.832" y="303.998" style="fill:#F4D35E;" width="32" height="128"/>
<rect x="22.832" y="303.998" style="fill:#EE964B;" width="72" height="128"/>
<path style="fill:#70C1B3;" d="M425.728,28.686c-38.8-38.248-101.712-38.248-140.512,0l-6.384,6.296l-6.384-6.296
	c-38.8-38.248-101.712-38.248-140.512,0s-38.8,100.264,0,138.512l6.384,6.296l140.512,138.504l140.512-138.512l6.384-6.296
	C464.536,128.942,464.536,66.934,425.728,28.686z"/>
<g>
	
		<rect x="219.363" y="124.023" transform="matrix(-0.6726 0.74 -0.74 -0.6726 564.0639 14.4889)" style="fill:#EBEBD3;" width="118.927" height="16"/>
	<path style="fill:#EBEBD3;" d="M246.832,131.998c-13.232,0-24-10.768-24-24s10.768-24,24-24c13.232,0,24,10.768,24,24
		S260.064,131.998,246.832,131.998z M246.832,99.998c-4.416,0-8,3.592-8,8c0,4.408,3.584,8,8,8s8-3.592,8-8
		S251.248,99.998,246.832,99.998z"/>
	<path style="fill:#EBEBD3;" d="M310.832,179.998c-13.232,0-24-10.768-24-24s10.768-24,24-24s24,10.768,24,24
		S324.064,179.998,310.832,179.998z M310.832,147.998c-4.416,0-8,3.592-8,8s3.584,8,8,8s8-3.592,8-8
		S315.248,147.998,310.832,147.998z"/>
	<rect x="238.832" y="191.998" style="fill:#EBEBD3;" width="16" height="16"/>
	<rect x="270.832" y="191.998" style="fill:#EBEBD3;" width="16" height="16"/>
	<rect x="302.832" y="191.998" style="fill:#EBEBD3;" width="16" height="16"/>
</g>
</svg>
