<svg version="1.1" id="Layer_1" xmlns="http://www.w3.org/2000/svg" xmlns:xlink="http://www.w3.org/1999/xlink" x="0px" y="0px"
	 viewBox="0 0 480.003 480.003" style="enable-background:new 0 0 480.003 480.003;" xml:space="preserve">
<g>
	<path style="fill:#F4D35E;" d="M136.002,304.003c0,17.672-25.072,32-56,32s-56-14.328-56-32"/>
	<path style="fill:#F4D35E;" d="M296.002,224.003c0,17.672-25.072,32-56,32s-56-14.328-56-32"/>
	<path style="fill:#F4D35E;" d="M296.002,264.003c0,17.672-25.072,32-56,32s-56-14.328-56-32"/>
	<path style="fill:#F4D35E;" d="M296.002,304.003c0,17.672-25.072,32-56,32s-56-14.328-56-32"/>
	<path style="fill:#F4D35E;" d="M296.002,344.003c0,17.672-25.072,32-56,32s-56-14.328-56-32"/>
	<path style="fill:#F4D35E;" d="M296.002,384.003c0,17.672-25.072,32-56,32s-56-14.328-56-32"/>
	<path style="fill:#F4D35E;" d="M456.002,104.003c0,17.672-25.072,32-56,32s-56-14.328-56-32"/>
	<path style="fill:#F4D35E;" d="M456.002,144.003c0,17.672-25.072,32-56,32s-56-14.328-56-32"/>
	<path style="fill:#F4D35E;" d="M456.002,184.003c0,17.672-25.072,32-56,32s-56-14.328-56-32"/>
	<path style="fill:#F4D35E;" d="M456.002,224.003c0,17.672-25.072,32-56,32s-56-14.328-56-32"/>
	<path style="fill:#F4D35E;" d="M456.002,264.003c0,17.672-25.072,32-56,32s-56-14.328-56-32"/>
	<path style="fill:#F4D35E;" d="M456.002,304.003c0,17.672-25.072,32-56,32s-56-14.328-56-32"/>
	<path style="fill:#F4D35E;" d="M456.002,344.003c0,17.672-25.072,32-56,32s-56-14.328-56-32"/>
	<path style="fill:#F4D35E;" d="M456.002,384.003c0,17.672-25.072,32-56,32s-56-14.328-56-32"/>
	<path style="fill:#F4D35E;" d="M136.002,344.003c0,17.672-25.072,32-56,32s-56-14.328-56-32"/>
	<path style="fill:#F4D35E;" d="M136.002,384.003c0,17.672-25.072,32-56,32s-56-14.328-56-32"/>
	<path style="fill:#F4D35E;" d="M24.002,264.003v184c0,17.672,25.072,32,56,32s56-14.328,56-32v-184"/>
	<path style="fill:#F4D35E;" d="M184.002,184.003v264c0,17.672,25.072,32,56,32s56-14.328,56-32v-264"/>
</g>
<ellipse style="fill:#EE964B;" cx="80.002" cy="264.003" rx="56" ry="32"/>
<path style="fill:#F4D35E;" d="M344.002,64.003v384c0,17.672,25.072,32,56,32s56-14.328,56-32v-384"/>
<g>
	<ellipse style="fill:#EE964B;" cx="240.002" cy="184.003" rx="56" ry="32"/>
	<ellipse style="fill:#EE964B;" cx="400.002" cy="64.003" rx="56" ry="32"/>
</g>
<polygon style="fill:#3F3F3F;" points="248.002,184.003 232.002,184.003 232.002,108.691 250.346,90.347 261.658,101.659 
	248.002,115.315 "/>
<path style="fill:#70C1B3;" d="M319.322,32.683c0,0,5.376,37.008-14.128,56.512s-56.512,14.128-56.512,14.128
	s-5.376-37.008,14.128-56.512S319.322,32.683,319.322,32.683z"/>
<polygon style="fill:#3F3F3F;" points="234.346,157.659 192.002,115.315 192.002,64.003 208.002,64.003 208.002,108.691 
	245.658,146.347 "/>
<path style="fill:#70C1B3;" d="M128.754,0.755c0,0,41.12-5.976,62.792,15.696s15.696,62.792,15.696,62.792
	s-41.12,5.976-62.792-15.696S128.754,0.755,128.754,0.755z"/>
</svg>
