<svg version="1.1" id="Layer_1" xmlns="http://www.w3.org/2000/svg" xmlns:xlink="http://www.w3.org/1999/xlink" x="0px" y="0px"
	 viewBox="0 0 479.988 479.988" style="enable-background:new 0 0 479.988 479.988;" xml:space="preserve">
<rect x="313.744" y="291.141" transform="matrix(-0.7071 0.7071 -0.7071 -0.7071 907.6744 375.9893)" style="fill:#F4D35E;" width="124.447" height="169.678"/>
<g>
	
		<rect x="20.819" y="317.767" transform="matrix(-0.7071 0.7071 -0.7071 -0.7071 439.4292 577.9631)" style="fill:#70C1B3;" width="158.39" height="124.447"/>
	
		<rect x="291.144" y="41.791" transform="matrix(-0.7071 0.7071 -0.7071 -0.7071 715.3929 -88.2969)" style="fill:#70C1B3;" width="169.678" height="124.447"/>
</g>
<polygon style="fill:#EBEBD3;" points="232.352,128.661 192.016,87.997 175.68,87.997 88.016,175.997 88.016,223.997 
	112.016,247.997 "/>
<polygon style="fill:#3F3F3F;" points="256.016,343.997 232.016,367.997 200.016,367.997 112.016,279.997 112.016,247.997 
	136.016,223.997 "/>
<g>
	
		<rect x="25.79" y="25.774" transform="matrix(-0.7071 0.7071 -0.7071 -0.7071 212.4715 87.9858)" style="fill:#EE964B;" width="124.447" height="124.447"/>
	<path style="fill:#EE964B;" d="M216.016,303.997l-91.032-91.032c-3.184-3.184-4.968-7.496-4.968-12l0,0
		c0-9.368,7.6-16.968,16.968-16.968l0,0c4.504,0,8.816,1.784,12,4.968l59.032,59.032l-59.032-59.032
		c-3.184-3.184-4.968-7.496-4.968-12l0,0c0-9.368,7.6-16.968,16.968-16.968l0,0c4.504,0,8.816,1.784,12,4.968l59.032,59.032
		l-59.032-59.032c-3.184-3.184-4.968-7.496-4.968-12l0,0c0-9.368,7.6-16.968,16.968-16.968l0,0c4.504,0,8.816,1.784,12,4.968
		l59.032,59.032l-59.032-59.032c-3.184-3.184-4.968-7.496-4.968-12l0,0c0-9.368,7.6-16.968,16.968-16.968l0,0
		c4.504,0,8.816,1.784,12,4.968l139.032,139.032v16l-88,88h-32l-48-48v-32"/>
</g>
<polygon style="fill:#EBEBD3;" points="232.016,127.997 240.016,119.997 272.016,119.997 360.016,207.997 360.016,239.997 
	352.016,247.997 "/>
<g>
	
		<rect x="293.787" y="347.997" transform="matrix(-0.7071 0.7071 -0.7071 -0.7071 859.4766 355.9875)" style="fill:#3F3F3F;" width="124.447" height="16"/>
	
		<rect x="340.703" y="311.994" transform="matrix(-0.7071 0.7071 -0.7071 -0.7071 827.1968 297.3518)" style="fill:#3F3F3F;" width="22.624" height="16"/>
	
		<rect x="108.012" y="301.775" transform="matrix(-0.7071 0.7071 -0.7071 -0.7071 455.4297 539.3508)" style="fill:#3F3F3F;" width="16" height="124.447"/>
	
		<rect x="144.039" y="348.682" transform="matrix(-0.7071 0.7071 -0.7071 -0.7071 514.1007 507.0404)" style="fill:#3F3F3F;" width="16" height="22.624"/>
	
		<rect x="29.791" y="83.997" transform="matrix(-0.7071 0.7071 -0.7071 -0.7071 222.1297 91.9852)" style="fill:#3F3F3F;" width="124.447" height="16"/>
	
		<rect x="116.706" y="87.994" transform="matrix(-0.7071 0.7071 -0.7071 -0.7071 286.4185 73.3495)" style="fill:#3F3F3F;" width="22.624" height="16"/>
	
		<rect x="348.012" y="61.807" transform="matrix(-0.7071 0.7071 -0.7071 -0.7071 695.4523 -40.0059)" style="fill:#3F3F3F;" width="16" height="124.447"/>
	
		<rect x="312.017" y="116.69" transform="matrix(-0.7071 0.7071 -0.7071 -0.7071 636.8134 -7.7727)" style="fill:#3F3F3F;" width="16" height="22.624"/>
</g>
</svg>
