<svg version="1.1" id="Layer_1" xmlns="http://www.w3.org/2000/svg" xmlns:xlink="http://www.w3.org/1999/xlink" x="0px" y="0px"
	 viewBox="0 0 480 480" style="enable-background:new 0 0 480 480;" xml:space="preserve">
<polygon style="fill:#70C1B3;" points="480,240 443.784,276.504 465.584,323.36 419.216,345.032 423.848,396.632 372.984,400.92 
	360.024,451.048 310.784,437.44 281.672,480 240,450.056 198.336,480 169.216,437.44 119.968,451.04 107.008,400.92 56.144,396.632 
	60.776,345.024 14.416,323.36 36.216,276.504 0,240 36.216,203.496 14.416,156.64 60.784,134.968 56.152,83.368 107.016,79.08 
	119.976,28.952 169.216,42.56 198.328,0 240,29.944 281.664,0 310.784,42.56 360.032,28.96 372.992,79.08 423.856,83.368 
	419.224,134.976 465.584,156.64 443.784,203.496 "/>
<path style="fill:#EE964B;" d="M168,248H80v-48c0-17.672,14.328-32,32-32h56V248z"/>
<g>
	<path style="fill:#EBEBD3;" d="M96,248h56v88h-24c-17.672,0-32-14.328-32-32V248z"/>
	<polygon style="fill:#EBEBD3;" points="320,288 168,248 168,168 320,128 	"/>
</g>
<g>
	<path style="fill:#3F3F3F;" d="M359.032,228.288l-11.312-11.312c9.36-9.36,9.36-24.584,0-33.944l11.312-11.312
		C374.624,187.312,374.624,212.688,359.032,228.288z"/>
	<path style="fill:#3F3F3F;" d="M381.656,250.912L370.344,239.6c10.584-10.584,16.424-24.648,16.424-39.6s-5.832-29.008-16.424-39.6
		l11.312-11.312c13.608,13.608,21.112,31.688,21.112,50.912S395.264,237.304,381.656,250.912z"/>
	<rect x="176" y="328" style="fill:#3F3F3F;" width="16" height="16"/>
	<rect x="208" y="328" style="fill:#3F3F3F;" width="16" height="16"/>
	<rect x="240" y="328" style="fill:#3F3F3F;" width="16" height="16"/>
</g>
</svg>
