<svg version="1.1" id="Layer_1" xmlns="http://www.w3.org/2000/svg" xmlns:xlink="http://www.w3.org/1999/xlink" x="0px" y="0px"
	 viewBox="0 0 480 480" style="enable-background:new 0 0 480 480;" xml:space="preserve">
<g>
	<path style="fill:#3F3F3F;" d="M72,176H56V40C56,17.944,73.944,0,96,0h152c22.056,0,40,17.944,40,40v88h-16V40
		c0-13.232-10.768-24-24-24H96c-13.232,0-24,10.768-24,24V176z"/>
	<path style="fill:#3F3F3F;" d="M304,480H168c-22.056,0-40-17.944-40-40V312h16v128c0,13.232,10.768,24,24,24h136
		c13.232,0,24-10.768,24-24V288h16v152C344,462.056,326.056,480,304,480z"/>
</g>
<path style="fill:#EE964B;" d="M446.648,192.712C447.44,189.928,448,187.04,448,184c0-17.672-14.328-32-32-32
	c-2.824,0-5.512,0.48-8.12,1.168c0.016-0.4,0.12-0.768,0.12-1.168c0-17.672-14.328-32-32-32c-6.64,0-12.8,2.024-17.912,5.48
	C353.72,113.008,341.968,104,328,104s-25.72,9.008-30.088,21.48C292.8,122.024,286.64,120,280,120c-17.672,0-32,14.328-32,32
	c-17.672,0-32,14.328-32,32c0,3.04,0.56,5.928,1.352,8.712C202.872,195.776,192,208.608,192,224c0,17.672,14.328,32,32,32h168
	c0,17.672,14.328,32,32,32h16v-32c17.672,0,32-14.328,32-32C472,208.608,461.128,195.776,446.648,192.712z"/>
<path style="fill:#70C1B3;" d="M262.648,256.712C263.44,253.928,264,251.04,264,248c0-17.672-14.328-32-32-32
	c0-17.672-14.328-32-32-32c-6.64,0-12.8,2.024-17.912,5.48C177.72,177.008,165.968,168,152,168s-25.72,9.008-30.088,21.48
	C116.8,186.024,110.64,184,104,184c-17.672,0-32,14.328-32,32c0,0.4,0.104,0.768,0.12,1.168C69.512,216.48,66.824,216,64,216
	c-17.672,0-32,14.328-32,32c0,3.04,0.56,5.928,1.352,8.712C18.872,259.776,8,272.608,8,288c0,17.672,14.328,32,32,32v32h16
	c17.672,0,32-14.328,32-32h168c17.672,0,32-14.328,32-32C288,272.608,277.128,259.776,262.648,256.712z"/>
<g>
	<rect x="368" y="8" style="fill:#F4D35E;" width="16" height="16"/>
	<rect x="400" y="8" style="fill:#F4D35E;" width="16" height="16"/>
	<rect x="432" y="8" style="fill:#F4D35E;" width="16" height="16"/>
	<rect x="32" y="464" style="fill:#F4D35E;" width="16" height="16"/>
	<rect x="64" y="464" style="fill:#F4D35E;" width="16" height="16"/>
	<rect x="96" y="464" style="fill:#F4D35E;" width="16" height="16"/>
</g>
<g>
	<polygon style="fill:#3F3F3F;" points="64,187.312 34.344,157.656 45.656,146.344 64,164.688 82.344,146.344 93.656,157.656 	"/>
	<polygon style="fill:#3F3F3F;" points="354.344,317.656 336,299.312 317.656,317.656 306.344,306.344 336,276.688 365.656,306.344 
			"/>
</g>
</svg>
