<svg version="1.1" id="Capa_1" xmlns="http://www.w3.org/2000/svg" xmlns:xlink="http://www.w3.org/1999/xlink" x="0px" y="0px"
	 viewBox="0 0 485 485" style="enable-background:new 0 0 485 485;" xml:space="preserve">
<g>
	<path d="M356.25,113.75h-227.5C57.757,113.75,0,171.507,0,242.5s57.757,128.75,128.75,128.75h227.5
		c70.993,0,128.75-57.757,128.75-128.75S427.243,113.75,356.25,113.75z M30,242.5c0-54.451,44.299-98.75,98.75-98.75
		s98.75,44.299,98.75,98.75s-44.299,98.75-98.75,98.75S30,296.951,30,242.5z M356.25,341.25H211.266
		c28.24-23.636,46.234-59.129,46.234-98.75s-17.994-75.114-46.234-98.75H356.25c54.451,0,98.75,44.299,98.75,98.75
		S410.701,341.25,356.25,341.25z"/>
</g>
</svg>
