<svg xmlns="http://www.w3.org/2000/svg" xmlns:xlink="http://www.w3.org/1999/xlink" version="1.1" id="Capa_1" x="0px" y="0px" viewBox="0 0 357.504 357.504" style="enable-background:new 0 0 357.504 357.504;" xml:space="preserve">
	<g>
		<path d="M308.752,150.752c-11.046,0-20,8.954-20,20v95.664c0,0.449-0.851,1.336-1.399,1.336H135.752v-41.274   c0-6.132-3.794-10.415-9.226-10.415c-2.079,0-4.175,0.649-6.229,1.929l-96.021,59.789c-3.514,2.188-5.528,5.479-5.529,9.028   c0,3.533,2,6.804,5.488,8.978l96.06,59.786c2.057,1.281,4.152,1.931,6.231,1.931c5.432,0,9.226-4.283,9.226-10.416v-39.336h151.601   c22.44,0,41.399-18.93,41.399-41.336v-95.664C328.752,159.706,319.798,150.752,308.752,150.752z"/>
		<path d="M333.269,61.717l-96.06-59.786C235.152,0.65,233.057,0,230.978,0c-5.432,0-9.226,4.283-9.226,10.416v39.336H70.151   c-22.44,0-41.399,18.93-41.399,41.336v95.664c0,11.046,8.954,20,20,20s20-8.954,20-20V91.088c0-0.449,0.851-1.336,1.399-1.336   h151.601v41.274c0,6.132,3.794,10.415,9.226,10.415c2.079,0,4.175-0.649,6.229-1.929l96.021-59.789   c3.514-2.188,5.528-5.479,5.529-9.028C338.757,67.162,336.757,63.891,333.269,61.717z"/>
	</g>
</svg>