<svg xmlns="http://www.w3.org/2000/svg" xmlns:xlink="http://www.w3.org/1999/xlink" version="1.1" id="Capa_1" x="0px" y="0px" viewBox="0 0 436.907 436.907" style="enable-background:new 0 0 436.907 436.907;" xml:space="preserve"><g><circle style="fill:#009999" cx="218.453" cy="218.453" r="218.453" data-original="#45B39C" class="" data-old_color="#45B39C"/><g style="opacity:0.1;">
	<path d="M436.907,223.573l-117.76-117.76l0,0c-8.875-9.557-21.504-15.701-35.499-15.701c-26.624,0-48.128,21.504-48.128,48.128   c0,7.168,1.707,13.995,4.437,20.139l-18.091,23.552l-18.773-18.773c0,0-7.509-2.048,0,0c-1.365-0.341-15.701-5.12-25.6-3.413   l-2.731-2.731c0,0-4.437,1.707,0,0c0,0-21.504-2.048-23.893,14.336c0,0-20.48,5.12-17.749,27.989l3.755,3.755   c0.341,8.875,1.365,22.187,6.144,25.941l0,0l2.731,2.731c3.755,9.557,8.875,19.115,15.701,24.917v11.605l-11.947,5.803   l-27.989,12.288c-6.144,2.731-10.24,8.533-10.923,15.36l-4.779,44.032l89.088,89.088c7.851,1.024,16.043,1.365,24.235,1.365   C337.237,436.907,433.835,342.016,436.907,223.573z" data-original="#000000" class=""/>
</g><path style="fill:#D5D6DB;" d="M187.051,266.923l5.803,2.731l36.864,16.725c7.168,3.413,12.288,10.24,13.653,18.432l5.803,41.643  H105.131l4.779-44.032c0.683-6.827,5.12-12.629,10.923-15.36l39.936-17.408l4.437-1.365" data-original="#D5D6DB"/><path style="fill:#F6C358;" d="M183.979,285.696h-13.653c-5.12,0-9.216-4.096-9.216-9.216v-25.6h32.085v25.6  C193.195,281.6,189.099,285.696,183.979,285.696z" data-original="#F6C358"/><path style="fill:#FCD462;" d="M217.429,198.315c-3.413,41.984-20.48,64.853-39.936,65.536  c-32.427,1.024-40.619-65.536-40.619-65.536l31.061-23.211h21.504L217.429,198.315z" data-original="#FCD462"/><polygon style="fill:#CE412D;" points="182.613,300.715 173.739,300.715 168.619,285.696 187.733,285.696 " data-original="#CE412D"/><polygon style="fill:#E56353;" points="174.08,300.715 166.571,332.117 177.493,343.723 187.733,332.117 182.272,300.715 " data-original="#E56353"/><polyline style="fill:#3EA69B;" points="179.2,286.72 204.8,302.08 204.8,274.773 193.195,268.971 177.493,285.355 161.109,268.971   148.821,274.773 148.821,302.08 176.469,286.72 " data-original="#3EA69B"/><path style="fill:#FCD462;" d="M209.237,206.507c0,0-3.755-14.336-5.12-18.432c0,0-8.533,15.019-3.755,17.408L209.237,206.507z" data-original="#FCD462"/><path style="fill:#3A556A;" d="M144.043,230.4c0,0-8.192-34.133,9.216-38.229c0,0,13.995,14.336,44.373,1.365  c0,0,15.019,0,13.995,32.768c0,0,8.875-12.629,6.827-26.283l3.413,6.144c0,0-3.413-38.912-31.403-41.984  c0,0,5.461-3.413,12.971-1.365c0,0-23.552-7.851-32.427-0.683c0,0-1.024-3.755,3.755-5.461c0,0-21.504-2.048-23.552,14.336  c0,0-20.48,5.461-17.749,28.331c0,0,3.072-1.365,3.755-4.779C136.875,194.901,135.168,226.645,144.043,230.4z" data-original="#3A556A"/><path style="fill:#EF6733" d="M283.648,90.453c-26.624,0-48.128,21.504-48.128,48.128c0,7.168,1.707,13.995,4.437,20.139  l-18.432,23.552l30.037-7.851c8.533,7.509,19.797,12.288,32.085,12.288c26.624,0,48.128-21.504,48.128-48.128  C331.776,111.957,310.272,90.453,283.648,90.453z" data-original="#DC8744" class="active-path" data-old_color="#ef6733"/><path style="fill:#2F4859" d="M289.792,149.845H276.48v-6.485c0-2.389,0.341-4.096,1.024-5.461  c0.683-1.024,2.048-2.731,3.755-4.779l5.803-6.144c1.024-1.024,1.365-2.389,1.365-4.096s-0.341-3.072-1.365-4.096  c-1.024-1.024-2.048-1.707-3.755-1.707c-1.365,0-2.731,0.683-3.755,2.048c-1.024,1.365-1.707,3.072-1.707,5.12h-13.653  c0.683-5.803,2.731-10.24,6.144-13.653s8.192-4.779,13.312-4.779c5.461,0,9.899,1.365,12.971,4.437  c3.413,3.072,5.12,6.827,5.12,12.288c0,2.389-0.341,4.096-1.024,5.12c-0.683,1.024-1.024,2.048-1.365,2.389  c-0.341,0.341-0.683,1.365-1.707,2.048c-0.683,1.024-1.365,1.707-1.707,2.048c-1.365,1.365-2.731,2.731-4.096,3.755  c-1.365,1.365-2.048,2.048-2.389,3.072c-0.341,0.683-0.683,2.048-0.683,3.413v5.461H289.792z M277.845,166.229  c-1.365-1.365-2.048-3.413-2.048-5.461c0-2.048,0.683-4.096,2.048-5.461c1.365-1.365,3.413-2.048,5.461-2.048  s4.096,0.683,5.461,2.048c1.365,1.365,2.048,3.413,2.048,5.461c0,2.048-0.683,4.096-2.048,5.461  c-1.365,1.365-3.413,2.048-5.461,2.048C281.259,168.619,279.211,167.936,277.845,166.229z" data-original="#2F4859" class=""/></g> </svg>
